<?xml version="1.0" encoding="UTF-8"?>
<svg id="Layer_2" xmlns="http://www.w3.org/2000/svg" viewBox="0 0 24 18.5">
  <defs>
    <style>
      .cls-1 {
        fill: #fff;
      }
    </style>
  </defs>
  <g id="Layer_2-2" data-name="Layer_2">
    <path class="cls-1" d="M14.79,18.5c-1.14,0-2.22-.44-3.04-1.18-.78.62-1.77.98-2.8.98-1.63,0-3.12-.89-3.91-2.28-2.84-.34-5.05-2.77-5.05-5.69s2.31-5.45,5.25-5.7C6.23,1.91,8.87,0,11.82,0s5.66,1.93,6.6,4.71c3.1-.08,5.58,2.42,5.58,5.47,0,2.86-2.21,5.22-5.02,5.45-.65,1.71-2.3,2.87-4.19,2.87ZM11.87,13.96l.8,1.34c.44.74,1.25,1.2,2.12,1.2,1.21,0,2.24-.86,2.45-2.04l.16-.93.94.11c.06,0,.12,0,.18,0,1.92,0,3.48-1.56,3.48-3.47,0-2.12-1.89-3.85-4.13-3.41l-.98.19-.19-.98c-.45-2.31-2.5-3.98-4.88-3.98s-4.34,1.62-4.85,3.85l-.2.87-.89-.1s-.1,0-.15,0c-2.06,0-3.73,1.67-3.73,3.72s1.66,3.71,3.71,3.73h.68s.24.65.24.65c.36.95,1.29,1.59,2.32,1.59.81,0,1.57-.39,2.03-1.05l.89-1.28ZM10.68,6.53c0-.85-.22-1.76-.85-1.76s-.85.91-.85,1.76.22,1.76.85,1.76.85-.91.85-1.76ZM14.45,6.53c0-.85-.22-1.76-.85-1.76s-.85.91-.85,1.76.22,1.76.85,1.76.85-.91.85-1.76Z"/>
  </g>
</svg>