<?xml version="1.0" encoding="UTF-8"?>
<svg id="Layer_2" xmlns="http://www.w3.org/2000/svg" viewBox="0 0 24 24">
  <defs>
    <style>
      .cls-1 {
        fill: #fff;
      }
    </style>
  </defs>
  <g id="Layer_2-2" data-name="Layer_2">
    <path class="cls-1" d="M21.2,0H2.8C1.71,1.09,1.09,1.71,0,2.8v18.39c1.09,1.09,1.71,1.71,2.8,2.8h18.39l2.8-2.8V2.8c-1.09-1.09-1.71-1.71-2.8-2.8ZM22,20.37l-1.63,1.63H3.63l-1.63-1.63V3.63l1.63-1.63h16.74l.69.69.95.95v16.74ZM12.66,20.39l7.65-7.65v2.83l-4.82,4.82h-2.83ZM8.21,20.39l12.1-12.1v2.83l-9.27,9.27h-2.83ZM19.86,3.68H5.11l-1.35,1.35v14.74L19.86,3.68ZM5.76,6.32l.64-.64h1.08l-1.72,1.72v-1.08ZM5.76,11.64l5.96-5.96h1.33l-7.29,7.29v-1.33Z"/>
  </g>
</svg>