<?xml version="1.0" encoding="UTF-8"?>
<svg id="Layer_2" xmlns="http://www.w3.org/2000/svg" viewBox="0 0 24 22.86">
  <defs>
    <style>
      .cls-1 {
        fill: #fff;
      }
    </style>
  </defs>
  <g id="Layer_2-2" data-name="Layer_2">
    <path class="cls-1" d="M18.32,22.86c-.22,0-.45-.04-.66-.14l-.85-.38c-1.36-.61-2.55-1.14-4.81-2.43-2.25,1.29-3.44,1.82-4.81,2.43l-.85.38c-.64.29-1.4.08-1.84-.24-.42-.31-.64-.78-.59-1.25l.09-.78c.15-1.4.3-2.73.96-5.36-2.44-2.05-3.66-3.34-4.71-4.95-.33-.52-.31-1.26-.14-1.74.2-.58.6-.79.82-.87,1.52-.52,3.38-.69,6.61-.81,1.21-3.3,2.03-4.9,3.12-6.19.39-.46,1-.53,1.33-.53s.94.07,1.33.53c1.08,1.28,1.92,2.93,3.12,6.19,3.22.12,5.09.29,6.61.81.22.07.61.28.82.87.17.48.19,1.23-.15,1.74-1.04,1.61-2.26,2.9-4.71,4.95.66,2.63.81,3.96.96,5.36l.09.77c.06.48-.17.94-.59,1.25-.29.21-.73.38-1.18.38ZM5.91,21.45h0s0,0,0,0ZM18.09,21.45s0,0,0,0h0ZM18.48,20.9h0s0,0,0,0ZM5.52,20.9s0,0,0,0h0ZM2.08,9.27c.83,1.24,1.89,2.41,4.65,4.68l.49.41-.16.62c-.76,2.9-.91,4.19-1.07,5.69v.02s.38-.17.38-.17c1.47-.65,2.63-1.17,5.12-2.62l.5-.29.5.29c2.49,1.45,3.65,1.97,5.12,2.62l.39.17v-.02c-.17-1.5-.31-2.79-1.07-5.69l-.16-.62.49-.41c2.76-2.28,3.82-3.45,4.65-4.68-1.19-.31-2.86-.46-6.2-.58l-.68-.02-.23-.64c-1.16-3.2-1.92-4.83-2.81-5.98-.89,1.14-1.65,2.77-2.8,5.98l-.23.64-.68.02c-3.35.11-5.02.26-6.2.58ZM22.42,9.42s0,0,0,0c0,0,0,0,0,0ZM1.58,9.42s0,0,0,0c0,0,0,0,0,0ZM22.06,9.05s0,0,0,0c0,0,0,0,0,0ZM11.8,1.82s0,0,0,0h0s0,0,0,0ZM12.2,1.82s0,0,0,0c0,0,0,0,0,0ZM10.96,10.82c0-.85-.22-1.75-.85-1.75s-.85.91-.85,1.75.22,1.75.85,1.75.85-.91.85-1.75ZM14.72,10.82c0-.85-.22-1.75-.85-1.75s-.85.91-.85,1.75.22,1.75.85,1.75.85-.91.85-1.75Z"/>
  </g>
</svg>