<?xml version="1.0" encoding="UTF-8"?>
<svg id="Layer_2" xmlns="http://www.w3.org/2000/svg" viewBox="0 0 24 22.55">
  <defs>
    <style>
      .cls-1 {
        fill: #fff;
      }
    </style>
  </defs>
  <g id="Layer_2-2" data-name="Layer_2">
    <path class="cls-1" d="M23.98,11c-.08-2.1-.8-4.12-2.14-5.99-1.28-1.8-2.78-2.84-3.57-3.31-2.9-1.7-5.35-1.7-6.27-1.7s-3.37,0-6.27,1.7c-.79.46-2.29,1.5-3.57,3.31C.83,6.88.11,8.9.02,11c-.06,1.37-.13,3.25,1.23,4.86.78.92,1.75,1.41,2.58,1.68-.02.76.09,1.5.32,2.48.27,1.11,1.43,2.11,2.58,2.22,2.09.21,3.68.31,5.27.31s3.18-.1,5.27-.31c1.16-.11,2.32-1.11,2.58-2.23.23-.98.34-1.72.32-2.48.83-.26,1.8-.76,2.58-1.68,1.36-1.61,1.28-3.49,1.22-4.86ZM17.91,19.55c-.07.29-.52.67-.83.7-4.08.4-6.07.4-10.15,0-.31-.03-.76-.41-.83-.7-.37-1.52-.37-2.18,0-3.7.07-.29.52-.67.83-.7,2.04-.2,3.56-.3,5.07-.3s3.04.1,5.07.3c.31.03.76.41.83.7.36,1.52.36,2.18,0,3.7ZM21.22,14.57c-.4.47-.88.75-1.34.94,0-.04-.02-.08-.03-.12-.27-1.11-1.43-2.11-2.58-2.22-4.19-.41-6.35-.41-10.54,0-1.16.11-2.32,1.11-2.58,2.22-.01.04-.02.08-.03.12-.46-.19-.95-.47-1.34-.94-.7-.83-.79-1.82-.77-2.82.83-.48,2.17-1.48,2.79-3.3.51-1.48.3-2.81.09-3.57.73-.73,1.43-1.2,1.86-1.45,2.15-1.26,3.94-1.43,5.25-1.43s3.1.16,5.26,1.43c.43.25,1.12.72,1.85,1.45-.21.76-.42,2.08.09,3.57.62,1.83,1.97,2.83,2.8,3.31.02,1-.08,1.99-.77,2.81ZM11.05,17.25c0,.4-.06,1.71-.84,1.71s-.84-1.31-.84-1.71.06-1.71.84-1.71.84,1.31.84,1.71ZM14.63,17.25c0,.4-.06,1.71-.84,1.71s-.84-1.31-.84-1.71.06-1.71.84-1.71.84,1.31.84,1.71ZM16.66,7.4c.08,2.45-.37,4.47-4.51,4.47s-4.59-2.02-4.51-4.47c.08-2.37,1.73-4.17,4.55-4.17s4.39,1.83,4.47,4.17Z"/>
  </g>
</svg>