<?xml version="1.0" encoding="UTF-8"?>
<svg id="Layer_2" xmlns="http://www.w3.org/2000/svg" viewBox="0 0 22.43 22.21">
  <defs>
    <style>
      .cls-1 {
        fill: #fff;
      }
    </style>
  </defs>
  <g id="Layer_2-2" data-name="Layer_2">
    <path class="cls-1" d="M22.43,20.37l-7.6-10.96-4.37,6.3-3.1-4.47-.99,1.43c0-.2.01-.4.02-.59.13-2.76.87-4.98,1.64-6.48.99.61,1.98,1.46,2.62,2.62.88,1.58.58,2.98.42,3.55,1.84-1.57,2.88-3.86,2.12-5.72-.42-1.04-1.31-1.79-2.49-2.18.1,0,.21.01.31.02,2.25.21,3.67,1.11,4.36,1.65-.45-2.74-2.55-4.69-5.03-4.34-1.09.15-1.94.71-2.59,1.31-.28-.47-.66-.96-1.18-1.36-.37-.3-2.08-1.62-4-.95C1.55.55.68,1.43.22,2.75c.75-.09,1.84-.17,3.18-.06.91.08,1.6.14,2.39.44-1.91-.32-3.67.13-4.74,1.26-1.26,1.33-1.34,3.37-.45,5.26.29-.66.9-1.69,2.21-2.66.91-.66,1.93-1.14,2.95-1.49-.59,1.3-1.08,3.06-1.46,6.26-.18,1.48-.2,2.85-.13,4.1l-3.13,4.51h3.93c.26.74.55,1.37.87,1.85h3.33c-.48-.62-.87-1.23-1.21-1.85h14.48ZM14.83,12.91l3.78,5.45h-7.56l3.78-5.45ZM9.88,18.37h-2.8c-.27-.82-.45-1.62-.56-2.42l.84-1.21,2.51,3.63Z"/>
  </g>
</svg>