<?xml version="1.0" encoding="UTF-8"?>
<svg id="Layer_2" xmlns="http://www.w3.org/2000/svg" viewBox="0 0 24.01 23.27">
  <defs>
    <style>
      .cls-1 {
        fill: #fff;
      }
    </style>
  </defs>
  <g id="Layer_2-2" data-name="Layer_2">
    <path class="cls-1" d="M6.46,7.7c0,.45-.07,1.91-.94,1.91s-.94-1.46-.94-1.91.07-1.91.94-1.91.94,1.46.94,1.91ZM9.52,5.8c-.87,0-.94,1.46-.94,1.91s.07,1.91.94,1.91.94-1.46.94-1.91-.07-1.91-.94-1.91ZM24.01,14.05v8.08h-8.48v1.13H0V7.77C0,3.48,3.48,0,7.77,0s7.77,3.48,7.77,7.77v.97c.79-.38,1.67-.59,2.57-.59,3.26,0,5.91,2.65,5.91,5.91ZM13.53,7.77c0-3.18-2.59-5.77-5.77-5.77S2,4.59,2,7.77v13.5h11.53v-10.91l-.02-.02s.01-.02.02-.02v-2.55ZM17.4,13.81c0-.92-.3-1.48-.8-1.48s-.8.55-.8,1.48.3,1.48.8,1.48.8-.55.8-1.48ZM20.41,13.81c0-.92-.3-1.48-.8-1.48s-.8.55-.8,1.48.3,1.48.8,1.48.8-.55.8-1.48Z"/>
  </g>
</svg>