<?xml version="1.0" encoding="UTF-8"?>
<svg id="Layer_2" xmlns="http://www.w3.org/2000/svg" viewBox="0 0 23.98 22.5">
  <defs>
    <style>
      .cls-1 {
        fill: #fff;
      }
    </style>
  </defs>
  <g id="Layer_2-2" data-name="Layer_2">
    <path class="cls-1" d="M22.35,5.69h0C20.35,2.24,16.29.01,11.99,0,7.68.01,3.61,2.24,1.63,5.69c-2.16,3.74-2.37,9.45.57,11.5.56.39,1.21.64,1.95.74-.1.87,0,2.04.78,3.08.98,1.25,2.1,1.49,2.79,1.49.86,0,1.52-.35,2-.72.53.39,1.27.75,2.23.72.05,0,.11,0,.16,0,.92,0,1.64-.35,2.15-.72.47.37,1.14.72,1.99.72.72,0,1.81-.24,2.8-1.5.78-1.02.87-2.18.77-3.06.74-.11,1.4-.36,1.96-.75,2.94-2.05,2.73-7.76.57-11.5ZM20.63,15.54c-.5.34-1.15.49-2,.44l-1.53-.09.54,1.44c.06.15.53,1.5-.19,2.45-.24.31-.61.69-1.18.71-.65,0-1.08-.58-1.17-.7l-.79-1.1-.83,1.07c-.1.13-.62.77-1.54.73-.82.04-1.31-.55-1.46-.74l-.84-1.07-.77,1.12c-.08.11-.51.69-1.17.69-.6.03-1.05-.54-1.19-.71-.74-.98-.2-2.39-.2-2.4l.65-1.49-1.62.09c-.85.04-1.5-.1-2-.44-1.8-1.25-1.79-5.72.02-8.85,1.64-2.84,5.02-4.68,8.62-4.69,3.6,0,6.99,1.85,8.63,4.69,1.81,3.13,1.82,7.6.02,8.85ZM10.55,10.17c0,2.71-.41,3.43-.72,3.74-.51.5-1.25.75-2.12.75-.19,0-.39-.01-.59-.04-.47-.06-2.03-.35-2.65-1.63-.6-1.24.08-2.55.44-3.25.81-1.58,2.43-3.07,3.77-3.45.5-.14.92-.12,1.24.07.63.37.63,1.45.63,3.82ZM14.07,16.86c0,.39-.16,1.02-.59,1.11h0s-.1.01-.15.01c-.45,0-.99-.38-1.33-.93-.39.61-1,1.02-1.48.92-.43-.09-.61-.7-.59-1.11.01-.8.75-1.28,1.11-1.51.35-.23.67-.41.93-.41l.05-.02.04.02c.25.01.55.18.87.38.36.23,1.14.71,1.16,1.54ZM19.07,9.74c.36.71,1.03,2.02.44,3.25-.62,1.29-2.18,1.58-2.65,1.63-.2.02-.4.04-.59.04-.87,0-1.61-.26-2.12-.75-.31-.31-.73-1.03-.72-3.74,0-2.37,0-3.44.63-3.81.32-.19.74-.21,1.24-.07,1.34.39,2.96,1.87,3.77,3.45Z"/>
  </g>
</svg>