<?xml version="1.0" encoding="UTF-8"?>
<svg id="Layer_2" xmlns="http://www.w3.org/2000/svg" viewBox="0 0 24.01 23.54">
  <defs>
    <style>
      .cls-1 {
        fill: #fff;
      }
    </style>
  </defs>
  <g id="Layer_2-2" data-name="Layer_2">
    <path class="cls-1" d="M22.72,12.5c-.2-.2-.42-.36-.64-.5.23-.84.3-1.73.24-2.46-.18-2.13-1.52-4.57-3.72-4.91-.36-.04-.68-.02-.96.03.01-.24.02-.48.05-.72.11-.86.32-1.71.62-2.53l.46-1.24-1.31-.11c-4-.35-7.35.77-9.96,3.3-1.55,1.5-2.36,3.17-2.78,4.55-1.3-.03-2.47.29-3.22,1.08-.23.24-.96,1.12-.79,2.29.11.75.58,1.4,1.28,1.88-1.3.67-2.29,2.15-1.9,3.81.08.36.23.69.42,1-.02.08-.05.17-.06.25-.2.94,0,1.88.54,2.59.43.56,1.08.94,1.8,1.09.28.51.69.94,1.2,1.24.46.26.97.4,1.51.4,1.02,0,1.83-.49,2.13-.7.61-.43,1.05-1.03,1.33-1.72,1.01.4,2.09.63,3.2.63.84,0,1.69-.12,2.51-.38,1.03-.32,1.96-.85,2.78-1.56.47.11.96.16,1.41.16.54,0,1.04-.06,1.45-.15.54-.12,2.17-.47,3.1-1.99,1.01-1.67.72-3.96-.68-5.33ZM2.95,10.37c.82-.86,3.78-.55,6.07,1.04.87.6,2.48,1.72,2.39,3.07-.05.78-.65,1.67-1.48,2.22-.6.4-1.22.54-1.64.4-.52-.18-.84-.83-.99-1.2l-.31-.78-.82.17c-.71.15-1.4-.14-1.67-.69-.28-.58.09-1.25.09-1.26l.65-1.16-1.29-.31c-.77-.18-1.22-.59-1.27-.88-.03-.22.17-.52.27-.62ZM20.18,11.39c-1.22-.1-2.47.25-3.4.89-.1.07-.2.16-.3.24,0,0-.01,0-.02-.01-.74-.52-1.62-1.9-1.82-3.3-.13-.96-.05-2.11.55-2.51.2-.13.46-.19.75-.16.2.03.39.11.57.23l.54.36.55-.35c.21-.14.48-.19.77-.16,1.01.16,1.85,1.75,1.96,3.09.05.6-.03,1.19-.16,1.69ZM16.7,17.08c-.53-.96.2-2.46,1.21-3.16.46-.32,1.17-.58,1.87-.58.56,0,1.11.16,1.54.58h0c.73.71.9,2,.37,2.86-.48.78-1.41.99-1.81,1.07-.68.15-2.58.3-3.18-.78ZM8.89,4.8c2.53-2.44,5.38-2.8,7.15-2.81-.15.56-.26,1.13-.33,1.71-.04.28-.05.57-.07.86-.72.03-1.24.27-1.56.49-.11.07-.2.15-.3.24-1.72-.11-3.49.44-5.28,1.68-.47.32-1,.77-1.54,1.31-.08-.02-.16-.05-.24-.07.37-1.06,1.01-2.29,2.16-3.4ZM6.49,21.2c-.06.04-.5.34-.99.34-.17,0-.35-.04-.52-.13-.5-.29-.75-1-.54-1.72-.3.21-.63.3-.94.3-.39,0-.74-.15-.94-.4-.39-.51-.21-1.55.68-2.02-.61-.12-1.09-.53-1.21-1.05-.12-.52.14-1.02.54-1.36.04.1.07.21.12.31.4.81,1.11,1.39,1.96,1.67.54,1.23,1.43,2.26,2.53,3.03-.13.43-.36.8-.7,1.03ZM17.24,11.03c-.69.14-.98-.99-1.05-1.34-.07-.35-.26-1.5.43-1.64.69-.14.98.99,1.05,1.34.07.35.26,1.5-.43,1.64ZM19.66,9.19c.07.35.26,1.5-.43,1.64s-.98-.99-1.05-1.34-.26-1.5.43-1.64.98.99,1.05,1.34ZM18.22,16.24c-.2-.5,1-1.93,1.95-1.59.53.19.92.93.73,1.38-.33.8-2.46.76-2.68.21Z"/>
  </g>
</svg>